<svg width="512" height="512" viewBox="0 0 512 512" fill="none" xmlns="http://www.w3.org/2000/svg">
<rect width="512" height="512" fill="#63393E"/>
<g opacity="0.15">
<path d="M97.28 381.44C114.246 381.44 128 367.686 128 350.72C128 333.754 114.246 320 97.28 320C80.3138 320 66.56 333.754 66.56 350.72C66.56 367.686 80.3138 381.44 97.28 381.44Z" fill="white"/>
<path d="M384 350.72C400.966 350.72 414.72 336.966 414.72 320C414.72 303.034 400.966 289.28 384 289.28C367.034 289.28 353.28 303.034 353.28 320C353.28 336.966 367.034 350.72 384 350.72Z" fill="white"/>
<path d="M322.56 112.64C339.526 112.64 353.28 98.8862 353.28 81.92C353.28 64.9538 339.526 51.2 322.56 51.2C305.594 51.2 291.84 64.9538 291.84 81.92C291.84 98.8862 305.594 112.64 322.56 112.64Z" fill="white"/>
<path d="M117.76 174.08C134.726 174.08 148.48 160.326 148.48 143.36C148.48 126.394 134.726 112.64 117.76 112.64C100.794 112.64 87.04 126.394 87.04 143.36C87.04 160.326 100.794 174.08 117.76 174.08Z" fill="white"/>
<path d="M293.12 465.92C313.621 465.92 330.24 449.301 330.24 428.8C330.24 408.299 313.621 391.68 293.12 391.68C272.619 391.68 256 408.299 256 428.8C256 449.301 272.619 465.92 293.12 465.92Z" fill="white"/>
<path d="M234.24 217.6C246.258 217.6 256 207.858 256 195.84C256 183.822 246.258 174.08 234.24 174.08C222.222 174.08 212.48 183.822 212.48 195.84C212.48 207.858 222.222 217.6 234.24 217.6Z" fill="white"/>
<path d="M436.48 174.08C448.498 174.08 458.24 164.338 458.24 152.32C458.24 140.302 448.498 130.56 436.48 130.56C424.462 130.56 414.72 140.302 414.72 152.32C414.72 164.338 424.462 174.08 436.48 174.08Z" fill="white"/>
<path d="M65.28 471.04C77.2977 471.04 87.04 461.298 87.04 449.28C87.04 437.262 77.2977 427.52 65.28 427.52C53.2623 427.52 43.52 437.262 43.52 449.28C43.52 461.298 53.2623 471.04 65.28 471.04Z" fill="white"/>
</g>
</svg>
