<svg width="512" height="512" viewBox="0 0 512 512" fill="none" xmlns="http://www.w3.org/2000/svg">
<rect width="512" height="512" fill="#836B32"/>
<path fill-rule="evenodd" clip-rule="evenodd" d="M117.76 176.64C153.106 176.64 181.76 163.459 181.76 147.2C181.76 130.941 153.106 104.96 117.76 104.96C82.4138 104.96 53.76 130.941 53.76 147.2C53.76 163.459 82.4138 176.64 117.76 176.64Z" fill="white" fill-opacity="0.03"/>
<path fill-rule="evenodd" clip-rule="evenodd" d="M224 435.2C267.122 435.2 302.08 419.154 302.08 399.36C302.08 379.566 267.122 358.4 224 358.4C180.878 358.4 145.92 379.566 145.92 399.36C145.92 419.154 180.878 435.2 224 435.2Z" fill="white" fill-opacity="0.03"/>
<path fill-rule="evenodd" clip-rule="evenodd" d="M256 133.12C281.449 133.12 302.08 123.378 302.08 111.36C302.08 99.3423 281.449 84.48 256 84.48C230.551 84.48 209.92 99.3423 209.92 111.36C209.92 123.378 230.551 133.12 256 133.12Z" fill="white" fill-opacity="0.03"/>
<path fill-rule="evenodd" clip-rule="evenodd" d="M437.76 335.36C461.795 335.36 473.6 326.191 473.6 314.88C473.6 303.569 461.795 289.28 437.76 289.28C413.725 289.28 401.92 303.569 401.92 314.88C401.92 326.191 413.725 335.36 437.76 335.36Z" fill="white" fill-opacity="0.03"/>
</svg>
