<svg width="512" height="512" viewBox="0 0 512 512" fill="none" xmlns="http://www.w3.org/2000/svg">
<path fill-rule="evenodd" clip-rule="evenodd" d="M265.273 344.275V374.808C265.273 376.387 264.984 378.9 264.047 380.161C264.047 380.161 266.016 383.909 247.204 383.909C228.393 383.909 230.509 380.179 230.509 380.179C229.869 378.791 229.351 376.385 229.351 374.808V335.503C247.204 308.5 265.273 331 265.273 344.275Z" fill="#7AC02D"/>
<path fill-rule="evenodd" clip-rule="evenodd" d="M265.701 340.677C251.5 348.441 251.5 360 229.547 348.441C184.952 256.367 218.842 250.288 202.638 247.801C201.922 236.345 201.934 225.713 202.72 217C206.648 173.487 233.283 140.33 262.212 142.941C291.141 145.552 311.409 182.943 307.481 226.456C304.576 258.641 286.58 314.716 265.701 340.677Z" fill="#7AC02D"/>
<path fill-rule="evenodd" clip-rule="evenodd" d="M261.895 142.469C232.966 139.858 206.33 173.016 202.403 216.529C198.475 260.042 213.866 351.459 242.795 354.07C271.724 356.681 284.041 273.716 287.969 230.203C291.896 186.69 290.824 145.08 261.895 142.469Z" fill="#86D035"/>
</svg>
