<svg width="512" height="512" viewBox="0 0 512 512" fill="none" xmlns="http://www.w3.org/2000/svg">
<path fill-rule="evenodd" clip-rule="evenodd" d="M274.273 329.275V359.808C274.273 361.387 273.984 363.9 273.047 365.161C273.047 365.161 275.016 368.909 256.204 368.909C237.393 368.909 239.509 365.179 239.509 365.179C238.869 363.791 238.351 361.385 238.351 359.808V320.503C208.393 305.312 171.416 271.843 154.479 248.532C128.799 213.186 127.031 170.691 150.53 153.618C174.029 136.545 213.897 151.358 239.577 186.704C245.561 194.939 251.976 205.945 258.001 218.198C262.35 207.576 266.996 198.012 271.501 190.514C294.003 153.064 332.428 134.832 357.326 149.792C382.224 164.753 384.166 207.239 361.664 244.689C345.02 272.389 304.381 315.012 274.273 329.275Z" fill="#7AC02D"/>
<path fill-rule="evenodd" clip-rule="evenodd" d="M357.246 149.23C332.348 134.27 293.923 152.501 271.421 189.951C248.919 227.4 222.923 316.385 247.82 331.345C272.718 346.305 319.968 277.005 342.47 239.556C364.972 202.106 382.144 164.19 357.246 149.23Z" fill="#86D035"/>
</svg>
