<svg width="512" height="512" viewBox="0 0 512 512" fill="none" xmlns="http://www.w3.org/2000/svg">
<path fill-rule="evenodd" clip-rule="evenodd" d="M255.805 458.426C305.672 458.426 385.609 454.293 385.609 422.588C385.609 394.151 385.609 375.779 385.609 366.32C385.609 335.244 327.494 286.831 255.805 286.831C184.115 286.831 126 335.244 126 366.32C126 375.771 126 397.507 126 422.588C126 447.082 205.916 458.426 255.805 458.426Z" fill="#DB931D"/>
<path fill-rule="evenodd" clip-rule="evenodd" d="M255.805 416.867C327.494 416.867 361.677 397.396 361.677 366.32C361.677 335.244 327.494 286.831 255.805 286.831C184.115 286.831 126 335.244 126 366.32C126 397.396 184.115 416.867 255.805 416.867Z" fill="#F5A623"/>
<path fill-rule="evenodd" clip-rule="evenodd" d="M255.805 426.256C305.672 426.256 385.609 422.123 385.609 390.418C385.609 361.981 385.609 343.609 385.609 334.15C385.609 303.074 327.494 254.661 255.805 254.661C184.115 254.661 126 303.074 126 334.15C126 343.6 126 365.337 126 390.418C126 414.912 205.916 426.256 255.805 426.256Z" fill="#DB931D"/>
<path fill-rule="evenodd" clip-rule="evenodd" d="M255.805 384.696C327.494 384.696 361.677 365.226 361.677 334.15C361.677 303.074 327.494 254.661 255.805 254.661C184.115 254.661 126 303.074 126 334.15C126 365.226 184.115 384.696 255.805 384.696Z" fill="#F5A623"/>
<path fill-rule="evenodd" clip-rule="evenodd" d="M267.54 238.275V268.808C267.54 270.387 267.25 272.9 266.314 274.161C266.314 274.161 268.283 277.909 249.471 277.909C230.659 277.909 232.776 274.179 232.776 274.179C232.136 272.791 231.617 270.385 231.617 268.808V229.503C201.66 214.313 164.683 180.843 147.746 157.532C122.066 122.186 120.297 79.6915 143.796 62.6183C167.296 45.5452 207.164 60.3583 232.844 95.7044C238.827 103.939 245.243 114.945 251.268 127.198C255.617 116.576 260.262 107.012 264.768 99.5137C287.27 62.0639 325.695 43.8325 350.593 58.7926C375.49 73.7526 377.433 116.239 354.93 153.689C338.287 181.389 297.648 224.012 267.54 238.275Z" fill="#7AC02D"/>
<path fill-rule="evenodd" clip-rule="evenodd" d="M350.513 58.2296C325.615 43.2695 287.19 61.501 264.688 98.9508C242.185 136.4 216.189 225.385 241.087 240.345C265.985 255.305 313.234 186.005 335.736 148.556C358.238 111.106 375.41 73.1897 350.513 58.2296Z" fill="#86D035"/>
</svg>
