<svg width="512" height="512" viewBox="0 0 512 512" fill="none" xmlns="http://www.w3.org/2000/svg">
<path fill-rule="evenodd" clip-rule="evenodd" d="M259.233 389C276.329 389 303.733 387.579 303.733 376.678C303.733 366.9 303.733 360.583 303.733 357.331C303.733 346.646 283.81 330 259.233 330C234.657 330 214.733 346.646 214.733 357.331C214.733 360.58 214.733 368.054 214.733 376.678C214.733 385.1 242.131 389 259.233 389Z" fill="#DB931D"/>
<path fill-rule="evenodd" clip-rule="evenodd" d="M258.795 375C283.13 375 294.733 368.262 294.733 357.508C294.733 346.754 283.13 330 258.795 330C234.461 330 214.733 346.754 214.733 357.508C214.733 368.262 234.461 375 258.795 375Z" fill="#F5A623"/>
<path fill-rule="evenodd" clip-rule="evenodd" d="M274.273 308.275V338.808C274.273 340.387 273.984 342.9 273.047 344.161C273.047 344.161 275.016 347.909 256.204 347.909C237.393 347.909 239.509 344.179 239.509 344.179C238.869 342.791 238.351 340.385 238.351 338.808V299.503C208.393 284.313 171.416 250.843 154.479 227.532C128.799 192.186 127.031 149.691 150.53 132.618C174.029 115.545 213.897 130.358 239.577 165.704C245.561 173.939 251.976 184.945 258.001 197.198C262.35 186.576 266.996 177.012 271.501 169.514C294.003 132.064 332.428 113.832 357.326 128.793C382.224 143.753 384.166 186.239 361.664 223.689C345.02 251.389 304.381 294.012 274.273 308.275Z" fill="#7AC02D"/>
<path fill-rule="evenodd" clip-rule="evenodd" d="M357.246 128.23C332.348 113.27 293.923 131.501 271.421 168.951C248.919 206.4 222.923 295.385 247.82 310.345C272.718 325.305 319.968 256.005 342.47 218.556C364.972 181.106 382.144 143.19 357.246 128.23Z" fill="#86D035"/>
</svg>
